<svg width="33" height="31" viewBox="0 0 33 31" fill="none" xmlns="http://www.w3.org/2000/svg">
<path d="M15.7522 2.4619C15.4436 2.47905 15.1693 2.59906 14.9636 2.83907L3.61422 15.4914C3.37849 15.7614 2.79559 16.7472 2.517 18.0287C2.32413 18.5688 2.2084 19.1945 2.2084 19.9146C2.2084 23.3177 5.05432 24.6806 5.05432 24.6806C5.09718 24.7063 5.14433 24.7278 5.19147 24.7492L18.3581 28.658C18.7867 28.7823 19.2496 28.6323 19.5239 28.2809L30.2561 15.3542C30.5218 15.0242 30.5776 14.5699 30.3933 14.1884C30.3933 14.1884 29.9775 13.2284 30.4276 12.1312C30.5776 11.7669 30.5218 11.3511 30.2818 11.0382C30.0418 10.7253 29.6518 10.5668 29.2618 10.6225C28.876 10.6825 28.546 10.9439 28.4046 11.3082C27.8431 12.6841 28.006 13.7298 28.1988 14.3942L18.2895 26.3265L5.87724 22.6576L5.80866 22.6233C5.60293 22.5462 4.40285 22.0061 4.40285 19.9146C4.40285 19.0917 4.57857 18.6545 4.74573 18.4059C4.91288 18.1573 5.08861 18.0373 5.32863 17.9601C5.56865 17.883 5.84295 17.883 6.04868 17.8916H6.08297L17.5352 21.1832C17.6338 21.209 17.7452 21.2175 17.8438 21.2175C18.1867 21.2175 18.5167 21.0418 18.7353 20.7718L30.359 7.36511C30.6119 7.05652 30.6976 6.64506 30.5647 6.26789C30.4361 5.88644 30.0975 5.59927 29.7075 5.51355L16.0608 2.46191C15.958 2.44047 15.8551 2.45762 15.7522 2.46191L15.7522 2.4619ZM15.4436 6.8165C15.5636 6.81221 15.6751 6.82507 15.7865 6.85079L23.9471 8.8395C24.3928 8.94665 24.5643 9.2381 24.3243 9.52526L23.4328 10.5882C23.1885 10.8754 22.6141 11.0039 22.1641 10.8968L14.0378 8.90808C13.5878 8.80093 13.4206 8.4709 13.6606 8.18802L14.5178 7.15938C14.6979 6.94508 15.0836 6.82507 15.4436 6.8165Z" fill="#FFE600"/>
<path d="M15.6668 0.777407C15.3185 0.796754 15.009 0.932175 14.7768 1.20302L1.96968 15.4805C1.70367 15.7852 1.04591 16.8976 0.731532 18.3437C0.513888 18.9531 0.383301 19.6592 0.383301 20.4718C0.383301 24.312 3.59476 25.85 3.59476 25.85C3.64313 25.879 3.69633 25.9032 3.74953 25.9274L18.6074 30.3383C19.091 30.4786 19.6134 30.3093 19.9229 29.9127L32.0336 15.3257C32.3335 14.9533 32.3963 14.4406 32.1884 14.0102C32.1884 14.0102 31.7192 12.9268 32.227 11.6886C32.3963 11.2775 32.3335 10.8084 32.0626 10.4553C31.7918 10.1022 31.3516 9.9233 30.9115 9.98617C30.4762 10.0539 30.1038 10.3489 29.9442 10.76C29.3106 12.3125 29.4944 13.4927 29.7121 14.2423L18.53 27.7072L4.52338 23.5672L4.44599 23.5285C4.21384 23.4414 2.85961 22.832 2.85961 20.4718C2.85961 19.5432 3.05791 19.0498 3.24653 18.7693C3.43516 18.4888 3.63346 18.3534 3.9043 18.2663C4.17515 18.1793 4.48468 18.1793 4.71684 18.1889H4.75553L17.6788 21.9034C17.79 21.9324 17.9157 21.9421 18.027 21.9421C18.4139 21.9421 18.7863 21.7438 19.033 21.4391L32.1497 6.3104C32.435 5.96217 32.5318 5.49787 32.3818 5.07225C32.2367 4.6418 31.8546 4.31775 31.4145 4.22102L16.015 0.777409C15.8989 0.753225 15.7828 0.772572 15.6668 0.777409L15.6668 0.777407ZM15.3185 5.69132C15.4539 5.68649 15.5797 5.701 15.7054 5.73002L24.9142 7.97417C25.4172 8.09508 25.6107 8.42396 25.3398 8.74801L24.3338 9.94747C24.0581 10.2715 23.41 10.4166 22.9022 10.2957L13.7321 8.05155C13.2243 7.93064 13.0357 7.55823 13.3065 7.23902L14.2738 6.07825C14.477 5.83642 14.9123 5.701 15.3185 5.69132Z" fill="url(#paint0_linear)"/>
<defs>
<linearGradient id="paint0_linear" x1="16.4176" y1="0.765503" x2="16.4176" y2="30.387" gradientUnits="userSpaceOnUse">
<stop stop-color="#FFC700"/>
<stop offset="1" stop-color="#4200FF"/>
</linearGradient>
</defs>
</svg>
