<svg width="33" height="31" viewBox="0 0 33 31" fill="none" xmlns="http://www.w3.org/2000/svg">
<path d="M15.6668 0.85364C15.3185 0.872987 15.009 1.00841 14.7768 1.27926L1.96968 15.5567C1.70367 15.8614 1.04591 16.9738 0.731532 18.4199C0.513888 19.0293 0.383301 19.7355 0.383301 20.548C0.383301 24.3882 3.59476 25.9262 3.59476 25.9262C3.64313 25.9553 3.69633 25.9794 3.74953 26.0036L18.6074 30.4145C19.091 30.5548 19.6134 30.3855 19.9229 29.9889L32.0336 15.4019C32.3335 15.0295 32.3963 14.5168 32.1884 14.0864C32.1884 14.0864 31.7192 13.003 32.227 11.7649C32.3963 11.3538 32.3335 10.8846 32.0626 10.5315C31.7918 10.1785 31.3516 9.99953 30.9115 10.0624C30.4762 10.1301 30.1038 10.4251 29.9442 10.8362C29.3106 12.3888 29.4944 13.5689 29.7121 14.3186L18.53 27.7835L4.52338 23.6434L4.44599 23.6047C4.21384 23.5176 2.85961 22.9082 2.85961 20.548C2.85961 19.6194 3.05791 19.1261 3.24653 18.8456C3.43516 18.565 3.63346 18.4296 3.9043 18.3426C4.17515 18.2555 4.48468 18.2555 4.71684 18.2652H4.75553L17.6788 21.9796C17.79 22.0086 17.9157 22.0183 18.027 22.0183C18.4139 22.0183 18.7863 21.82 19.033 21.5153L32.1497 6.38664C32.435 6.03841 32.5318 5.5741 32.3818 5.14849C32.2367 4.71803 31.8546 4.39399 31.4145 4.29725L16.015 0.853642C15.8989 0.829458 15.7828 0.848805 15.6668 0.853642L15.6668 0.85364ZM15.3185 5.76756C15.4539 5.76272 15.5797 5.77723 15.7054 5.80625L24.9142 8.0504C25.4172 8.17131 25.6107 8.5002 25.3398 8.82425L24.3338 10.0237C24.0581 10.3478 23.41 10.4929 22.9022 10.3719L13.7321 8.12779C13.2243 8.00687 13.0357 7.63446 13.3065 7.31525L14.2738 6.15448C14.477 5.91266 14.9123 5.77723 15.3185 5.76756Z" fill="url(#paint0_linear)"/>
<path d="M31.7105 18.7734L22.3825 11.4518L16.2302 12.1932L16.9716 18.3455L26.2996 25.6671L31.7105 18.7734ZM17.6911 14.159C17.6329 13.676 18.0038 13.2034 18.4868 13.1452C18.9699 13.087 19.4425 13.4579 19.5007 13.941C19.5589 14.424 19.188 14.8966 18.7049 14.9548C18.2219 15.013 17.7493 14.6421 17.6911 14.159Z" fill="#FF0000"/>
<path d="M21.1744 18.4164L20.5124 17.9238L22.0806 15.8163L21.2889 15.5224L21.662 15.021L23.2357 15.5194L23.2964 15.5646L21.1744 18.4164ZM24.6409 19.1852C24.3543 19.5704 24.0464 19.8029 23.7173 19.8825C23.3895 19.9632 23.0682 19.8865 22.7535 19.6523C22.4362 19.4162 22.2689 19.1284 22.2517 18.789C22.2345 18.4495 22.3682 18.0885 22.6529 17.7059L23.0406 17.1849C23.3272 16.7997 23.6344 16.5668 23.9623 16.4861C24.2914 16.4064 24.614 16.4841 24.9299 16.7193C25.2459 16.9544 25.4126 17.2417 25.4298 17.5811C25.447 17.9206 25.3128 18.2823 25.0271 18.6662L24.6409 19.1852ZM24.4312 18.0888C24.5838 17.8838 24.6707 17.7111 24.692 17.5707C24.7142 17.4291 24.6672 17.315 24.551 17.2285C24.4374 17.144 24.3195 17.1293 24.1973 17.1844C24.0764 17.2405 23.9431 17.3625 23.7973 17.5502L23.2552 18.2788C23.0968 18.4917 23.0074 18.6676 22.9871 18.8067C22.9678 18.9445 23.0162 19.0566 23.1324 19.1431C23.2447 19.2266 23.3631 19.2407 23.4876 19.1852C23.613 19.1284 23.7527 18.998 23.9065 18.7939L24.4312 18.0888ZM25.5917 18.1247C25.7229 17.9484 25.8863 17.8488 26.0818 17.8259C26.2774 17.8031 26.4718 17.8635 26.665 18.0073C26.8609 18.1531 26.9753 18.3224 27.0083 18.5153C27.0422 18.7069 26.9907 18.8948 26.8537 19.0789L26.7487 19.2199C26.6176 19.3962 26.4553 19.4956 26.2621 19.5181C26.0688 19.5407 25.8755 19.48 25.6823 19.3362C25.4903 19.1934 25.3749 19.0254 25.3361 18.8322C25.2996 18.6386 25.3503 18.4491 25.4883 18.2637L25.5917 18.1247ZM25.9045 18.5917C25.854 18.6596 25.8317 18.7292 25.8375 18.8005C25.8442 18.8705 25.8809 18.9302 25.9475 18.9798C26.0846 19.0818 26.2183 19.0453 26.3485 18.8703L26.4359 18.7528C26.4864 18.6849 26.5095 18.6158 26.505 18.5455C26.5014 18.4739 26.4664 18.4133 26.3998 18.3638C26.3358 18.3162 26.2688 18.2998 26.1989 18.3147C26.13 18.3284 26.0683 18.3717 26.0139 18.4448L25.9045 18.5917ZM25.7535 20.7373C25.8856 20.5598 26.049 20.4602 26.2436 20.4386C26.4394 20.418 26.6334 20.4791 26.8253 20.622C27.0199 20.7667 27.1352 20.9348 27.1715 21.126C27.2077 21.3173 27.1553 21.5076 27.0144 21.6969L26.9124 21.834C26.7803 22.0116 26.6176 22.1117 26.4243 22.1342C26.231 22.1568 26.0371 22.0957 25.8425 21.9509C25.6506 21.8081 25.5352 21.64 25.4964 21.4468C25.4598 21.2533 25.5106 21.0638 25.6485 20.8784L25.7535 20.7373ZM26.0643 21.203C26.0186 21.2643 25.9992 21.3341 26.006 21.4122C26.0138 21.489 26.0477 21.5497 26.1078 21.5944C26.2344 21.6887 26.3477 21.6796 26.4475 21.5672L26.5996 21.367C26.6511 21.2978 26.6735 21.2282 26.6667 21.1582C26.6609 21.0869 26.6253 21.027 26.5601 20.9784C26.4974 20.9318 26.432 20.9146 26.3641 20.9269C26.297 20.9379 26.237 20.9764 26.1838 21.0424L26.0643 21.203ZM24.8005 20.7829L24.6081 20.3994L27.6593 19.2067L27.8517 19.5902L24.8005 20.7829Z" fill="white"/>
<defs>
<linearGradient id="paint0_linear" x1="16.4176" y1="0.841736" x2="16.4176" y2="30.4632" gradientUnits="userSpaceOnUse">
<stop stop-color="#00199C"/>
<stop offset="1" stop-color="#3883F4"/>
</linearGradient>
</defs>
</svg>
