<svg width="29" height="25" viewBox="0 0 29 25" fill="none" xmlns="http://www.w3.org/2000/svg">
<path d="M12.8488 0.0724812C6.02805 0.0724812 0.472977 5.62755 0.472977 12.4483C0.472977 19.269 6.02805 24.824 12.8488 24.824C13.3128 24.824 13.7734 24.7987 14.2338 24.7467C14.9578 24.665 15.4497 23.9657 15.2925 23.2553L15.2852 23.2166C15.1466 22.5966 14.5567 22.191 13.9268 22.2739C13.5691 22.321 13.2101 22.3489 12.8488 22.3489C7.36546 22.3489 2.94813 17.9315 2.94813 12.4483C2.94813 6.96496 7.36546 2.54764 12.8488 2.54764C14.6941 2.54764 16.4092 3.05519 17.8837 3.93024L16.7694 5.04455C16.3214 5.49255 16.6372 6.26037 17.2721 6.26037H22.0363C22.4286 6.26037 22.747 5.94204 22.747 5.54973V0.78554C22.747 0.150663 21.9791 -0.166467 21.5311 0.282774L19.6748 2.13914C17.7156 0.839784 15.3697 0.0724812 12.8488 0.0724812Z" fill="url(#paint0_linear)"/>
<path d="M21.1242 9.17729C20.43 9.18746 19.8753 9.7581 19.8848 10.4523V15.4835H14.8536C14.4 15.4771 13.9781 15.7154 13.7494 16.1072C13.5207 16.499 13.5207 16.9836 13.7494 17.3754C13.9781 17.7672 14.4 18.0055 14.8536 17.9991H19.8848V23.0303C19.8784 23.4839 20.1167 23.9058 20.5085 24.1345C20.9003 24.3631 21.3849 24.3631 21.7767 24.1345C22.1685 23.9058 22.4068 23.4839 22.4004 23.0303V17.9991H27.4316C27.8852 18.0055 28.3071 17.7672 28.5358 17.3754C28.7645 16.9836 28.7645 16.499 28.5358 16.1072C28.3071 15.7154 27.8852 15.4771 27.4316 15.4835H22.4004V10.4523C22.4051 10.1125 22.2721 9.78532 22.0317 9.54516C21.7913 9.30501 21.464 9.17231 21.1242 9.17729Z" fill="#FF7A00"/>
<defs>
<linearGradient id="paint0_linear" x1="0.472977" y1="1.16808" x2="22.7469" y2="23.5644" gradientUnits="userSpaceOnUse">
<stop stop-color="#6239D7"/>
<stop offset="1" stop-color="#FF9900"/>
</linearGradient>
</defs>
</svg>
