<svg width="33" height="31" viewBox="0 0 33 31" fill="none" xmlns="http://www.w3.org/2000/svg">
<path d="M15.6667 0.777407C15.3185 0.796754 15.009 0.932175 14.7768 1.20302L1.96967 15.4805C1.70366 15.7852 1.04589 16.8976 0.731517 18.3437C0.513873 18.9531 0.383286 19.6592 0.383286 20.4718C0.383286 24.312 3.59474 25.85 3.59474 25.85C3.64311 25.879 3.69631 25.9032 3.74951 25.9274L18.6074 30.3383C19.091 30.4786 19.6133 30.3093 19.9229 29.9127L32.0336 15.3257C32.3334 14.9533 32.3963 14.4406 32.1883 14.0102C32.1883 14.0102 31.7192 12.9268 32.227 11.6886C32.3963 11.2775 32.3334 10.8084 32.0626 10.4553C31.7917 10.1022 31.3516 9.9233 30.9115 9.98617C30.4762 10.0539 30.1038 10.3489 29.9442 10.76C29.3106 12.3125 29.4944 13.4927 29.712 14.2423L18.53 27.7072L4.52336 23.5672L4.44598 23.5285C4.21382 23.4414 2.85959 22.832 2.85959 20.4718C2.85959 19.5432 3.05789 19.0498 3.24652 18.7693C3.43514 18.4888 3.63344 18.3534 3.90428 18.2663C4.17513 18.1793 4.48467 18.1793 4.71682 18.1889H4.75552L17.6787 21.9034C17.79 21.9324 17.9157 21.9421 18.027 21.9421C18.4139 21.9421 18.7863 21.7438 19.033 21.4391L32.1497 6.3104C32.435 5.96217 32.5317 5.49787 32.3818 5.07225C32.2367 4.6418 31.8546 4.31775 31.4145 4.22102L16.015 0.777409C15.8989 0.753225 15.7828 0.772572 15.6667 0.777409L15.6667 0.777407ZM15.3185 5.69132C15.4539 5.68649 15.5797 5.701 15.7054 5.73002L24.9142 7.97417C25.4172 8.09508 25.6107 8.42396 25.3398 8.74801L24.3338 9.94747C24.0581 10.2715 23.41 10.4166 22.9022 10.2957L13.7321 8.05155C13.2243 7.93064 13.0357 7.55823 13.3065 7.23902L14.2738 6.07825C14.4769 5.83642 14.9122 5.701 15.3185 5.69132Z" fill="url(#paint0_linear)"/>
<path d="M31.7105 18.6972L22.3825 11.3755L16.2302 12.1169L16.9716 18.2692L26.2996 25.5909L31.7105 18.6972ZM17.691 14.0828C17.6328 13.5997 18.0038 13.1271 18.4868 13.0689C18.9699 13.0107 19.4425 13.3817 19.5007 13.8647C19.5589 14.3477 19.1879 14.8203 18.7049 14.8786C18.2219 14.9368 17.7493 14.5658 17.691 14.0828Z" fill="#FF0000"/>
<path d="M20.7881 15.886L22.0468 14.5585L23.7136 15.7988L23.3318 16.3119L22.2016 15.471L21.7158 15.9889C21.7832 15.9965 21.8625 16.018 21.9538 16.0535C22.0464 16.0899 22.1293 16.1353 22.2024 16.1897C22.4857 16.4006 22.6405 16.6466 22.6666 16.9277C22.695 17.2086 22.5965 17.5004 22.3711 17.8034C22.235 17.9862 22.0705 18.1214 21.8775 18.209C21.6867 18.2964 21.4879 18.3249 21.2811 18.2948C21.0743 18.2646 20.8704 18.1748 20.6693 18.0251C20.4904 17.892 20.3498 17.7306 20.2475 17.5409C20.1462 17.3499 20.0988 17.1573 20.1052 16.9633C20.1126 16.7679 20.1772 16.5898 20.299 16.4289L20.961 16.9215C20.8898 17.0308 20.8614 17.1385 20.8758 17.2446C20.8902 17.3506 20.9464 17.4401 21.0443 17.513C21.2663 17.6781 21.4997 17.5962 21.7445 17.2672C21.9709 16.9629 21.9483 16.7097 21.6767 16.5076C21.5226 16.393 21.3708 16.3571 21.2212 16.4L20.7881 15.886ZM24.6409 19.1089C24.3543 19.4941 24.0464 19.7266 23.7173 19.8063C23.3894 19.887 23.0682 19.8102 22.7535 19.576C22.4362 19.3399 22.2689 19.0521 22.2517 18.7127C22.2345 18.3732 22.3682 18.0122 22.6529 17.6296L23.0406 17.1086C23.3272 16.7234 23.6344 16.4905 23.9622 16.4098C24.2914 16.3301 24.6139 16.4079 24.9299 16.643C25.2459 16.8781 25.4125 17.1654 25.4298 17.5049C25.447 17.8443 25.3128 18.206 25.0271 18.5899L24.6409 19.1089ZM24.4312 18.0126C24.5837 17.8076 24.6707 17.6349 24.6919 17.4945C24.7142 17.3528 24.6672 17.2387 24.551 17.1522C24.4374 17.0677 24.3195 17.053 24.1973 17.1082C24.0764 17.1643 23.9431 17.2862 23.7973 17.4739L23.2551 18.2026C23.0968 18.4154 23.0074 18.5913 22.9871 18.7304C22.9678 18.8682 23.0162 18.9803 23.1324 19.0668C23.2447 19.1504 23.3631 19.1644 23.4876 19.1089C23.613 19.0521 23.7527 18.9217 23.9065 18.7177L24.4312 18.0126ZM25.5917 18.0484C25.7229 17.8721 25.8863 17.7725 26.0818 17.7497C26.2774 17.7268 26.4718 17.7873 26.665 17.9311C26.8609 18.0768 26.9753 18.2461 27.0083 18.439C27.0422 18.6306 26.9906 18.8185 26.8536 19.0026L26.7487 19.1436C26.6175 19.3199 26.4553 19.4193 26.262 19.4419C26.0688 19.4644 25.8755 19.4038 25.6822 19.26C25.4903 19.1171 25.3749 18.9491 25.3361 18.7559C25.2996 18.5624 25.3503 18.3729 25.4883 18.1875L25.5917 18.0484ZM25.9045 18.5155C25.854 18.5834 25.8316 18.653 25.8374 18.7242C25.8442 18.7942 25.8809 18.8539 25.9475 18.9035C26.0846 19.0055 26.2183 18.969 26.3485 18.7941L26.4359 18.6766C26.4864 18.6087 26.5094 18.5396 26.5049 18.4693C26.5014 18.3977 26.4664 18.3371 26.3998 18.2875C26.3358 18.2399 26.2688 18.2236 26.1989 18.2385C26.1299 18.2521 26.0683 18.2955 26.0138 18.3686L25.9045 18.5155ZM25.7535 20.6611C25.8856 20.4835 26.049 20.3839 26.2435 20.3624C26.4394 20.3418 26.6333 20.4029 26.8253 20.5457C27.0199 20.6905 27.1352 20.8585 27.1714 21.0498C27.2076 21.241 27.1553 21.4313 27.0144 21.6207L26.9124 21.7578C26.7802 21.9354 26.6175 22.0354 26.4243 22.058C26.231 22.0805 26.0371 22.0194 25.8425 21.8746C25.6506 21.7318 25.5352 21.5638 25.4964 21.3706C25.4598 21.177 25.5105 20.9875 25.6485 20.8021L25.7535 20.6611ZM26.0643 21.1267C26.0186 21.1881 25.9992 21.2578 26.006 21.3359C26.0138 21.4127 26.0477 21.4735 26.1078 21.5181C26.2344 21.6124 26.3477 21.6033 26.4475 21.491L26.5996 21.2907C26.6511 21.2215 26.6734 21.1519 26.6667 21.082C26.6609 21.0107 26.6253 20.9508 26.56 20.9022C26.4974 20.8555 26.432 20.8384 26.364 20.8507C26.297 20.8617 26.2369 20.9001 26.1838 20.9661L26.0643 21.1267ZM24.8005 20.7067L24.6081 20.3231L27.6593 19.1304L27.8517 19.514L24.8005 20.7067Z" fill="white"/>
<defs>
<linearGradient id="paint0_linear" x1="16.4176" y1="0.765503" x2="16.4176" y2="30.387" gradientUnits="userSpaceOnUse">
<stop stop-color="#008B59"/>
<stop offset="1" stop-color="#248B00"/>
</linearGradient>
</defs>
</svg>
