<svg width="33" height="31" viewBox="0 0 33 31" fill="none" xmlns="http://www.w3.org/2000/svg">
<path d="M15.6668 0.777407C15.3185 0.796754 15.009 0.932175 14.7768 1.20302L1.96968 15.4805C1.70367 15.7852 1.04591 16.8976 0.731532 18.3437C0.513888 18.9531 0.383301 19.6592 0.383301 20.4718C0.383301 24.312 3.59476 25.85 3.59476 25.85C3.64313 25.879 3.69633 25.9032 3.74953 25.9274L18.6074 30.3383C19.091 30.4786 19.6134 30.3093 19.9229 29.9127L32.0336 15.3257C32.3335 14.9533 32.3963 14.4406 32.1884 14.0102C32.1884 14.0102 31.7192 12.9268 32.227 11.6886C32.3963 11.2775 32.3335 10.8084 32.0626 10.4553C31.7918 10.1022 31.3516 9.9233 30.9115 9.98617C30.4762 10.0539 30.1038 10.3489 29.9442 10.76C29.3106 12.3125 29.4944 13.4927 29.7121 14.2423L18.53 27.7072L4.52338 23.5672L4.44599 23.5285C4.21384 23.4414 2.85961 22.832 2.85961 20.4718C2.85961 19.5432 3.05791 19.0498 3.24653 18.7693C3.43516 18.4888 3.63346 18.3534 3.9043 18.2663C4.17515 18.1793 4.48468 18.1793 4.71684 18.1889H4.75553L17.6788 21.9034C17.79 21.9324 17.9157 21.9421 18.027 21.9421C18.4139 21.9421 18.7863 21.7438 19.033 21.4391L32.1497 6.3104C32.435 5.96217 32.5318 5.49787 32.3818 5.07225C32.2367 4.6418 31.8546 4.31775 31.4145 4.22102L16.015 0.777409C15.8989 0.753225 15.7828 0.772572 15.6668 0.777409L15.6668 0.777407ZM15.3185 5.69132C15.4539 5.68649 15.5797 5.701 15.7054 5.73002L24.9142 7.97417C25.4172 8.09508 25.6107 8.42396 25.3398 8.74801L24.3338 9.94747C24.0581 10.2715 23.41 10.4166 22.9022 10.2957L13.7321 8.05155C13.2243 7.93064 13.0357 7.55823 13.3065 7.23902L14.2738 6.07825C14.477 5.83642 14.9123 5.701 15.3185 5.69132Z" fill="url(#paint0_linear)"/>
<path d="M31.7105 18.6972L22.3825 11.3755L16.2302 12.1169L16.9716 18.2692L26.2996 25.5909L31.7105 18.6972ZM17.6911 14.0828C17.6329 13.5997 18.0038 13.1271 18.4868 13.0689C18.9699 13.0107 19.4425 13.3817 19.5007 13.8647C19.5589 14.3477 19.188 14.8203 18.7049 14.8786C18.2219 14.9368 17.7493 14.5658 17.6911 14.0828Z" fill="#FF0000"/>
<path d="M21.7013 18.7322L19.7113 17.2514L20.0319 16.8205L21.6656 16.5389C22.0829 16.4498 22.3479 16.3295 22.4607 16.178C22.552 16.0553 22.5947 15.942 22.5888 15.8382C22.5828 15.7344 22.529 15.6446 22.4271 15.5688C22.3266 15.4939 22.2129 15.4763 22.0861 15.5159C21.9602 15.5541 21.8497 15.6372 21.7545 15.7652L21.0925 15.2725C21.2227 15.0976 21.3864 14.9689 21.5837 14.8864C21.782 14.8026 21.9899 14.7768 22.2074 14.8088C22.425 14.8409 22.6298 14.9283 22.8217 15.0712C23.1299 15.3005 23.3139 15.548 23.3738 15.8137C23.4351 16.0804 23.3666 16.347 23.1684 16.6133C23.0848 16.7256 22.9823 16.8198 22.8608 16.8957C22.7403 16.9704 22.592 17.0335 22.4157 17.0849C22.2418 17.136 21.984 17.1867 21.6424 17.2368L20.9579 17.3878L22.0802 18.2229L21.7013 18.7322ZM24.6409 19.1089C24.3543 19.4941 24.0464 19.7266 23.7173 19.8063C23.3895 19.887 23.0682 19.8102 22.7535 19.576C22.4362 19.3399 22.2689 19.0521 22.2517 18.7127C22.2345 18.3732 22.3682 18.0122 22.6529 17.6296L23.0406 17.1086C23.3272 16.7234 23.6344 16.4905 23.9623 16.4098C24.2914 16.3301 24.614 16.4079 24.9299 16.643C25.2459 16.8781 25.4126 17.1654 25.4298 17.5049C25.447 17.8443 25.3128 18.206 25.0271 18.5899L24.6409 19.1089ZM24.4312 18.0126C24.5838 17.8076 24.6707 17.6349 24.692 17.4945C24.7142 17.3528 24.6672 17.2387 24.551 17.1522C24.4374 17.0677 24.3195 17.053 24.1973 17.1082C24.0764 17.1643 23.9431 17.2862 23.7973 17.4739L23.2552 18.2026C23.0968 18.4154 23.0074 18.5913 22.9871 18.7304C22.9678 18.8682 23.0162 18.9803 23.1324 19.0668C23.2447 19.1504 23.3631 19.1644 23.4876 19.1089C23.613 19.0521 23.7527 18.9217 23.9065 18.7177L24.4312 18.0126ZM25.5917 18.0484C25.7229 17.8721 25.8863 17.7725 26.0818 17.7497C26.2774 17.7268 26.4718 17.7873 26.665 17.9311C26.8609 18.0768 26.9753 18.2461 27.0083 18.439C27.0422 18.6306 26.9907 18.8185 26.8537 19.0026L26.7487 19.1436C26.6176 19.3199 26.4553 19.4193 26.2621 19.4419C26.0688 19.4644 25.8755 19.4038 25.6823 19.26C25.4903 19.1171 25.3749 18.9491 25.3361 18.7559C25.2996 18.5624 25.3503 18.3729 25.4883 18.1875L25.5917 18.0484ZM25.9045 18.5155C25.854 18.5834 25.8317 18.653 25.8375 18.7242C25.8442 18.7942 25.8809 18.8539 25.9475 18.9035C26.0846 19.0055 26.2183 18.969 26.3485 18.7941L26.4359 18.6766C26.4864 18.6087 26.5095 18.5396 26.505 18.4693C26.5014 18.3977 26.4664 18.3371 26.3998 18.2875C26.3358 18.2399 26.2688 18.2236 26.1989 18.2385C26.13 18.2521 26.0683 18.2955 26.0139 18.3686L25.9045 18.5155ZM25.7535 20.6611C25.8856 20.4835 26.049 20.3839 26.2436 20.3624C26.4394 20.3418 26.6334 20.4029 26.8253 20.5457C27.0199 20.6905 27.1352 20.8585 27.1715 21.0498C27.2077 21.241 27.1553 21.4313 27.0144 21.6207L26.9124 21.7578C26.7803 21.9354 26.6176 22.0354 26.4243 22.058C26.231 22.0805 26.0371 22.0194 25.8425 21.8746C25.6506 21.7318 25.5352 21.5638 25.4964 21.3706C25.4598 21.177 25.5106 20.9875 25.6485 20.8021L25.7535 20.6611ZM26.0643 21.1267C26.0186 21.1881 25.9992 21.2578 26.006 21.3359C26.0138 21.4127 26.0477 21.4735 26.1078 21.5181C26.2344 21.6124 26.3477 21.6033 26.4475 21.491L26.5996 21.2907C26.6511 21.2215 26.6735 21.1519 26.6667 21.082C26.6609 21.0107 26.6253 20.9508 26.5601 20.9022C26.4974 20.8555 26.432 20.8384 26.3641 20.8507C26.297 20.8617 26.237 20.9001 26.1838 20.9661L26.0643 21.1267ZM24.8005 20.7067L24.6081 20.3231L27.6593 19.1304L27.8517 19.514L24.8005 20.7067Z" fill="white"/>
<defs>
<linearGradient id="paint0_linear" x1="16.4176" y1="0.765503" x2="16.4176" y2="30.387" gradientUnits="userSpaceOnUse">
<stop stop-color="#395CD7"/>
<stop offset="1" stop-color="#3995D7"/>
</linearGradient>
</defs>
</svg>
